<?xml version="1.0" encoding="us-ascii" standalone="no"?><svg xmlns="http://www.w3.org/2000/svg" xmlns:xlink="http://www.w3.org/1999/xlink" contentStyleType="text/css" height="1146px" preserveAspectRatio="none" style="width:1085px;height:1146px;background:#FDF5E6;" version="1.1" viewBox="0 0 1085 1146" width="1085px" zoomAndPan="magnify"><defs/><g><rect fill="#FDF5E6" height="1146" style="stroke:none;stroke-width:1.0;" width="1085" x="0" y="0"/><text fill="#000000" font-family="sans-serif" font-size="14" font-weight="bold" lengthAdjust="spacing" textLength="190" x="449.25" y="29.9659">Uploading audio part 2 (v2)</text><rect fill="#FFC0CB" height="51.412" style="stroke:#000000;stroke-width:1.5;" width="348" x="20" y="235.9599"/><rect fill="#008000" height="131.806" style="stroke:#000000;stroke-width:1.5;" width="879.5" x="20" y="414.196"/><rect fill="#FFC0CB" height="80.3939" style="stroke:none;stroke-width:1.0;" width="879.5" x="20" y="465.608"/><rect fill="none" height="275.3541" style="stroke:#000000;stroke-width:1.5;" width="1069.5" x="10" y="623.414"/><rect fill="#FFC0CB" height="146.5301" style="stroke:#000000;stroke-width:1.5;" width="1049.5" x="20" y="745.2381"/><rect fill="#FFC0CB" height="19.706" style="stroke:#000000;stroke-width:1.5;" width="135" x="40" y="1007.8862"/><line style="stroke:#181818;stroke-width:0.5;stroke-dasharray:5.0,5.0;" x1="75" x2="75" y1="79.1358" y2="1108.0042"/><line style="stroke:#181818;stroke-width:0.5;stroke-dasharray:5.0,5.0;" x1="307" x2="307" y1="79.1358" y2="1108.0042"/><line style="stroke:#181818;stroke-width:0.5;stroke-dasharray:5.0,5.0;" x1="524.5" x2="524.5" y1="79.1358" y2="1108.0042"/><line style="stroke:#181818;stroke-width:0.5;stroke-dasharray:5.0,5.0;" x1="691.5" x2="691.5" y1="79.1358" y2="1108.0042"/><line style="stroke:#181818;stroke-width:0.5;stroke-dasharray:5.0,5.0;" x1="844.5" x2="844.5" y1="79.1358" y2="1108.0042"/><line style="stroke:#181818;stroke-width:0.5;stroke-dasharray:5.0,5.0;" x1="979.5" x2="979.5" y1="79.1358" y2="1108.0042"/><rect fill="#E2E2F0" height="33.0679" rx="2.5" ry="2.5" style="stroke:#181818;stroke-width:0.5;" width="91" x="30" y="45.0679"/><text fill="#000000" font-family="sans-serif" font-size="14" lengthAdjust="spacing" textLength="77" x="37" y="67.0339">EarsService</text><rect fill="#E2E2F0" height="33.0679" rx="2.5" ry="2.5" style="stroke:#181818;stroke-width:0.5;" width="91" x="30" y="1107.0042"/><text fill="#000000" font-family="sans-serif" font-size="14" lengthAdjust="spacing" textLength="77" x="37" y="1128.9702">EarsService</text><rect fill="#E2E2F0" height="33.0679" rx="2.5" ry="2.5" style="stroke:#181818;stroke-width:0.5;" width="101" x="257" y="45.0679"/><text fill="#000000" font-family="sans-serif" font-size="14" lengthAdjust="spacing" textLength="87" x="264" y="67.0339">AudioService</text><rect fill="#E2E2F0" height="33.0679" rx="2.5" ry="2.5" style="stroke:#181818;stroke-width:0.5;" width="101" x="257" y="1107.0042"/><text fill="#000000" font-family="sans-serif" font-size="14" lengthAdjust="spacing" textLength="87" x="264" y="1128.9702">AudioService</text><rect fill="#E2E2F0" height="33.0679" rx="2.5" ry="2.5" style="stroke:#181818;stroke-width:0.5;" width="116" x="466.5" y="45.0679"/><text fill="#000000" font-family="sans-serif" font-size="14" lengthAdjust="spacing" textLength="102" x="473.5" y="67.0339">UserRepository</text><rect fill="#E2E2F0" height="33.0679" rx="2.5" ry="2.5" style="stroke:#181818;stroke-width:0.5;" width="116" x="466.5" y="1107.0042"/><text fill="#000000" font-family="sans-serif" font-size="14" lengthAdjust="spacing" textLength="102" x="473.5" y="1128.9702">UserRepository</text><rect fill="#E2E2F0" height="33.0679" rx="2.5" ry="2.5" style="stroke:#181818;stroke-width:0.5;" width="198" x="592.5" y="45.0679"/><text fill="#000000" font-family="sans-serif" font-size="14" lengthAdjust="spacing" textLength="184" x="599.5" y="67.0339">AudioRecordInfoRepository</text><rect fill="#E2E2F0" height="33.0679" rx="2.5" ry="2.5" style="stroke:#181818;stroke-width:0.5;" width="198" x="592.5" y="1107.0042"/><text fill="#000000" font-family="sans-serif" font-size="14" lengthAdjust="spacing" textLength="184" x="599.5" y="1128.9702">AudioRecordInfoRepository</text><rect fill="#E2E2F0" height="33.0679" rx="2.5" ry="2.5" style="stroke:#181818;stroke-width:0.5;" width="89" x="800.5" y="45.0679"/><text fill="#000000" font-family="sans-serif" font-size="14" lengthAdjust="spacing" textLength="75" x="807.5" y="67.0339">FileStorage</text><rect fill="#E2E2F0" height="33.0679" rx="2.5" ry="2.5" style="stroke:#181818;stroke-width:0.5;" width="89" x="800.5" y="1107.0042"/><text fill="#000000" font-family="sans-serif" font-size="14" lengthAdjust="spacing" textLength="75" x="807.5" y="1128.9702">FileStorage</text><rect fill="#E2E2F0" height="33.0679" rx="2.5" ry="2.5" style="stroke:#181818;stroke-width:0.5;" width="160" x="899.5" y="45.0679"/><text fill="#000000" font-family="sans-serif" font-size="14" lengthAdjust="spacing" textLength="146" x="906.5" y="67.0339">FileUploader instance</text><rect fill="#E2E2F0" height="33.0679" rx="2.5" ry="2.5" style="stroke:#181818;stroke-width:0.5;" width="160" x="899.5" y="1107.0042"/><text fill="#000000" font-family="sans-serif" font-size="14" lengthAdjust="spacing" textLength="146" x="906.5" y="1128.9702">FileUploader instance</text><polygon fill="#181818" points="295.5,108.8419,305.5,112.8419,295.5,116.8419,299.5,112.8419" style="stroke:#181818;stroke-width:1.0;"/><line style="stroke:#181818;stroke-width:1.0;" x1="75.5" x2="301.5" y1="112.8419" y2="112.8419"/><text fill="#000000" font-family="sans-serif" font-size="13" lengthAdjust="spacing" textLength="208" x="82.5" y="107.0328">getUploader(username, Metadata)</text><polygon fill="#181818" points="512.5,140.5479,522.5,144.5479,512.5,148.5479,516.5,144.5479" style="stroke:#181818;stroke-width:1.0;"/><line style="stroke:#181818;stroke-width:1.0;" x1="307.5" x2="518.5" y1="144.5479" y2="144.5479"/><text fill="#000000" font-family="sans-serif" font-size="13" lengthAdjust="spacing" textLength="193" x="314.5" y="138.7389">getUserByUsername(username)</text><polygon fill="#181818" points="318.5,172.2539,308.5,176.2539,318.5,180.2539,314.5,176.2539" style="stroke:#181818;stroke-width:1.0;"/><line style="stroke:#181818;stroke-width:1.0;stroke-dasharray:2.0,2.0;" x1="312.5" x2="523.5" y1="176.2539" y2="176.2539"/><text fill="#000000" font-family="sans-serif" font-size="13" lengthAdjust="spacing" textLength="28" x="324.5" y="170.4449">User</text><line style="stroke:#181818;stroke-width:1.0;" x1="307.5" x2="349.5" y1="207.9599" y2="207.9599"/><line style="stroke:#181818;stroke-width:1.0;" x1="349.5" x2="349.5" y1="207.9599" y2="220.9599"/><line style="stroke:#181818;stroke-width:1.0;" x1="308.5" x2="349.5" y1="220.9599" y2="220.9599"/><polygon fill="#181818" points="318.5,216.9599,308.5,220.9599,318.5,224.9599,314.5,220.9599" style="stroke:#181818;stroke-width:1.0;"/><text fill="#000000" font-family="sans-serif" font-size="13" lengthAdjust="spacing" textLength="157" x="314.5" y="202.1509">&#1055;&#1088;&#1086;&#1074;&#1077;&#1088;&#1082;&#1072; &#1073;&#1080;&#1079;&#1085;&#1077;&#1089; &#1087;&#1088;&#1072;&#1074;&#1080;&#1083;</text><path d="M20,235.9599 L83,235.9599 L83,245.6659 L73,255.6659 L20,255.6659 L20,235.9599 " fill="#EEEEEE" style="stroke:#000000;stroke-width:1.5;"/><rect fill="none" height="51.412" style="stroke:#000000;stroke-width:1.5;" width="348" x="20" y="235.9599"/><text fill="#000000" font-family="sans-serif" font-size="13" font-weight="bold" lengthAdjust="spacing" textLength="18" x="35" y="250.8569">alt</text><text fill="#000000" font-family="sans-serif" font-size="11" font-weight="bold" lengthAdjust="spacing" textLength="181" x="98" y="249.7188">[&#1048;&#1089;&#1082;&#1083;&#1102;&#1095;&#1077;&#1085;&#1080;e &#1087;&#1086; &#1073;&#1080;&#1079;&#1085;&#1077;&#1089; &#1083;&#1086;&#1075;&#1080;&#1082;&#1077;]</text><polygon fill="#181818" points="86.5,275.3719,76.5,279.3719,86.5,283.3719,82.5,279.3719" style="stroke:#181818;stroke-width:1.0;"/><line style="stroke:#181818;stroke-width:1.0;stroke-dasharray:2.0,2.0;" x1="80.5" x2="306.5" y1="279.3719" y2="279.3719"/><text fill="#000000" font-family="sans-serif" font-size="13" lengthAdjust="spacing" textLength="114" x="92.5" y="273.5629">BussnessException</text><polygon fill="#181818" points="679.5,331.784,689.5,335.784,679.5,339.784,683.5,335.784" style="stroke:#181818;stroke-width:1.0;"/><line style="stroke:#181818;stroke-width:1.0;" x1="307.5" x2="685.5" y1="335.784" y2="335.784"/><text fill="#000000" font-family="sans-serif" font-size="13" lengthAdjust="spacing" textLength="141" x="314.5" y="312.2689">create AudioRecordInfo</text><text fill="#000000" font-family="sans-serif" font-size="13" lengthAdjust="spacing" textLength="89" x="317.5" y="329.975">status: Waiting</text><polygon fill="#181818" points="318.5,363.49,308.5,367.49,318.5,371.49,314.5,367.49" style="stroke:#181818;stroke-width:1.0;"/><line style="stroke:#181818;stroke-width:1.0;stroke-dasharray:2.0,2.0;" x1="312.5" x2="690.5" y1="367.49" y2="367.49"/><text fill="#000000" font-family="sans-serif" font-size="13" lengthAdjust="spacing" textLength="33" x="324.5" y="361.681">UUID</text><polygon fill="#181818" points="833,395.196,843,399.196,833,403.196,837,399.196" style="stroke:#181818;stroke-width:1.0;"/><line style="stroke:#181818;stroke-width:1.0;" x1="307.5" x2="839" y1="399.196" y2="399.196"/><text fill="#000000" font-family="sans-serif" font-size="13" lengthAdjust="spacing" textLength="131" x="314.5" y="393.387">createFile(String uuid)</text><path d="M20,414.196 L83,414.196 L83,423.902 L73,433.902 L20,433.902 L20,414.196 " fill="#EEEEEE" style="stroke:#000000;stroke-width:1.5;"/><rect fill="none" height="131.806" style="stroke:#000000;stroke-width:1.5;" width="879.5" x="20" y="414.196"/><text fill="#000000" font-family="sans-serif" font-size="13" font-weight="bold" lengthAdjust="spacing" textLength="18" x="35" y="429.093">alt</text><text fill="#000000" font-family="sans-serif" font-size="11" font-weight="bold" lengthAdjust="spacing" textLength="153" x="98" y="427.9549">[uploader &#1091;&#1089;&#1087;&#1077;&#1096;&#1085;&#1086; &#1089;&#1086;&#1079;&#1076;&#1072;&#1085;]</text><polygon fill="#181818" points="318.5,453.608,308.5,457.608,318.5,461.608,314.5,457.608" style="stroke:#181818;stroke-width:1.0;"/><line style="stroke:#181818;stroke-width:1.0;stroke-dasharray:2.0,2.0;" x1="312.5" x2="844" y1="457.608" y2="457.608"/><text fill="#000000" font-family="sans-serif" font-size="13" lengthAdjust="spacing" textLength="73" x="324.5" y="451.799">file identifier</text><line style="stroke:#000000;stroke-width:1.0;stroke-dasharray:2.0,2.0;" x1="20" x2="899.5" y1="466.608" y2="466.608"/><text fill="#000000" font-family="sans-serif" font-size="11" font-weight="bold" lengthAdjust="spacing" textLength="124" x="25" y="478.3669">[&#1054;&#1096;&#1080;&#1073;&#1082;&#1072; &#1093;&#1088;&#1072;&#1085;&#1080;&#1083;&#1080;&#1097;&#1072;]</text><polygon fill="#181818" points="679.5,502.2959,689.5,506.2959,679.5,510.2959,683.5,506.2959" style="stroke:#181818;stroke-width:1.0;"/><line style="stroke:#181818;stroke-width:1.0;" x1="307.5" x2="685.5" y1="506.2959" y2="506.2959"/><text fill="#000000" font-family="sans-serif" font-size="13" lengthAdjust="spacing" textLength="270" x="314.5" y="500.4869">update AudioRecordInfo status: StorageError</text><polygon fill="#181818" points="86.5,534.002,76.5,538.002,86.5,542.002,82.5,538.002" style="stroke:#181818;stroke-width:1.0;"/><line style="stroke:#181818;stroke-width:1.0;stroke-dasharray:2.0,2.0;" x1="80.5" x2="306.5" y1="538.002" y2="538.002"/><text fill="#000000" font-family="sans-serif" font-size="13" lengthAdjust="spacing" textLength="95" x="92.5" y="532.1929">some exception</text><polygon fill="#181818" points="679.5,572.708,689.5,576.708,679.5,580.708,683.5,576.708" style="stroke:#181818;stroke-width:1.0;"/><line style="stroke:#181818;stroke-width:1.0;" x1="307.5" x2="685.5" y1="576.708" y2="576.708"/><text fill="#000000" font-family="sans-serif" font-size="13" lengthAdjust="spacing" textLength="256" x="314.5" y="570.899">update AudioRecordInfo status: Uploading</text><polygon fill="#181818" points="86.5,604.414,76.5,608.414,86.5,612.414,82.5,608.414" style="stroke:#181818;stroke-width:1.0;"/><line style="stroke:#181818;stroke-width:1.0;stroke-dasharray:2.0,2.0;" x1="80.5" x2="306.5" y1="608.414" y2="608.414"/><text fill="#000000" font-family="sans-serif" font-size="13" lengthAdjust="spacing" textLength="73" x="92.5" y="602.605">file identifier</text><path d="M10,623.414 L73,623.414 L73,633.12 L63,643.12 L10,643.12 L10,623.414 " fill="#EEEEEE" style="stroke:#000000;stroke-width:1.5;"/><rect fill="none" height="275.3541" style="stroke:#000000;stroke-width:1.5;" width="1069.5" x="10" y="623.414"/><text fill="#000000" font-family="sans-serif" font-size="13" font-weight="bold" lengthAdjust="spacing" textLength="18" x="25" y="638.311">alt</text><text fill="#000000" font-family="sans-serif" font-size="11" font-weight="bold" lengthAdjust="spacing" textLength="109" x="88" y="637.1729">[&#1055;&#1086;&#1083;&#1091;&#1095;&#1077;&#1085;&#1080;&#1077; &#1092;&#1072;&#1081;&#1083;&#1072;]</text><polygon fill="#181818" points="295.5,662.826,305.5,666.826,295.5,670.826,299.5,666.826" style="stroke:#181818;stroke-width:1.0;"/><line style="stroke:#181818;stroke-width:1.0;" x1="75.5" x2="301.5" y1="666.826" y2="666.826"/><text fill="#000000" font-family="sans-serif" font-size="13" lengthAdjust="spacing" textLength="187" x="82.5" y="661.017">writeBatch(file_identifier, bytes)</text><polygon fill="#181818" points="833,694.532,843,698.532,833,702.532,837,698.532" style="stroke:#181818;stroke-width:1.0;"/><line style="stroke:#181818;stroke-width:1.0;" x1="307.5" x2="839" y1="698.532" y2="698.532"/><text fill="#000000" font-family="sans-serif" font-size="13" lengthAdjust="spacing" textLength="187" x="314.5" y="692.723">writeBatch(file_identifier, bytes)</text><polygon fill="#181818" points="967.5,726.2381,977.5,730.2381,967.5,734.2381,971.5,730.2381" style="stroke:#181818;stroke-width:1.0;"/><line style="stroke:#181818;stroke-width:1.0;" x1="845" x2="973.5" y1="730.2381" y2="730.2381"/><text fill="#000000" font-family="sans-serif" font-size="13" lengthAdjust="spacing" textLength="105" x="852" y="724.429">writeBatch(bytes)</text><path d="M20,745.2381 L83,745.2381 L83,754.9441 L73,764.9441 L20,764.9441 L20,745.2381 " fill="#EEEEEE" style="stroke:#000000;stroke-width:1.5;"/><rect fill="none" height="146.5301" style="stroke:#000000;stroke-width:1.5;" width="1049.5" x="20" y="745.2381"/><text fill="#000000" font-family="sans-serif" font-size="13" font-weight="bold" lengthAdjust="spacing" textLength="18" x="35" y="760.1351">alt</text><text fill="#000000" font-family="sans-serif" font-size="11" font-weight="bold" lengthAdjust="spacing" textLength="49" x="98" y="758.997">[IOError]</text><polygon fill="#181818" points="856,784.6501,846,788.6501,856,792.6501,852,788.6501" style="stroke:#181818;stroke-width:1.0;"/><line style="stroke:#181818;stroke-width:1.0;stroke-dasharray:2.0,2.0;" x1="850" x2="978.5" y1="788.6501" y2="788.6501"/><text fill="#000000" font-family="sans-serif" font-size="13" lengthAdjust="spacing" textLength="73" x="862" y="782.8411">IOException</text><polygon fill="#181818" points="318.5,816.3561,308.5,820.3561,318.5,824.3561,314.5,820.3561" style="stroke:#181818;stroke-width:1.0;"/><line style="stroke:#181818;stroke-width:1.0;stroke-dasharray:2.0,2.0;" x1="312.5" x2="844" y1="820.3561" y2="820.3561"/><text fill="#000000" font-family="sans-serif" font-size="13" lengthAdjust="spacing" textLength="73" x="324.5" y="814.5471">IOException</text><polygon fill="#181818" points="679.5,848.0621,689.5,852.0621,679.5,856.0621,683.5,852.0621" style="stroke:#181818;stroke-width:1.0;"/><line style="stroke:#181818;stroke-width:1.0;" x1="307.5" x2="685.5" y1="852.0621" y2="852.0621"/><text fill="#000000" font-family="sans-serif" font-size="13" lengthAdjust="spacing" textLength="169" x="314.5" y="846.2531">update record status : Failed</text><polygon fill="#181818" points="86.5,879.7681,76.5,883.7681,86.5,887.7681,82.5,883.7681" style="stroke:#181818;stroke-width:1.0;"/><line style="stroke:#181818;stroke-width:1.0;stroke-dasharray:2.0,2.0;" x1="80.5" x2="306.5" y1="883.7681" y2="883.7681"/><text fill="#000000" font-family="sans-serif" font-size="13" lengthAdjust="spacing" textLength="73" x="92.5" y="877.9591">IOExcepiton</text><polygon fill="#181818" points="295.5,925.4742,305.5,929.4742,295.5,933.4742,299.5,929.4742" style="stroke:#181818;stroke-width:1.0;"/><line style="stroke:#181818;stroke-width:1.0;" x1="75.5" x2="301.5" y1="929.4742" y2="929.4742"/><text fill="#000000" font-family="sans-serif" font-size="13" lengthAdjust="spacing" textLength="171" x="82.5" y="923.6651">fileUploadedNotify(file_uuid)</text><polygon fill="#181818" points="833,957.1802,843,961.1802,833,965.1802,837,961.1802" style="stroke:#181818;stroke-width:1.0;"/><line style="stroke:#181818;stroke-width:1.0;" x1="307.5" x2="839" y1="961.1802" y2="961.1802"/><text fill="#000000" font-family="sans-serif" font-size="13" lengthAdjust="spacing" textLength="108" x="314.5" y="955.3712">closeFile(file_uuid)</text><polygon fill="#181818" points="967.5,988.8862,977.5,992.8862,967.5,996.8862,971.5,992.8862" style="stroke:#181818;stroke-width:1.0;"/><line style="stroke:#181818;stroke-width:1.0;" x1="845" x2="973.5" y1="992.8862" y2="992.8862"/><text fill="#000000" font-family="sans-serif" font-size="13" lengthAdjust="spacing" textLength="30" x="852" y="987.0772">close</text><path d="M40,1007.8862 L103,1007.8862 L103,1017.5922 L93,1027.5922 L40,1027.5922 L40,1007.8862 " fill="#EEEEEE" style="stroke:#000000;stroke-width:1.5;"/><rect fill="none" height="19.706" style="stroke:#000000;stroke-width:1.5;" width="135" x="40" y="1007.8862"/><text fill="#000000" font-family="sans-serif" font-size="13" font-weight="bold" lengthAdjust="spacing" textLength="18" x="55" y="1022.7832">alt</text><text fill="#000000" font-family="sans-serif" font-size="11" font-weight="bold" lengthAdjust="spacing" textLength="52" x="118" y="1021.6451">[ioerrors]</text><polygon fill="#181818" points="679.5,1054.2982,689.5,1058.2982,679.5,1062.2982,683.5,1058.2982" style="stroke:#181818;stroke-width:1.0;"/><line style="stroke:#181818;stroke-width:1.0;" x1="307.5" x2="685.5" y1="1058.2982" y2="1058.2982"/><text fill="#000000" font-family="sans-serif" font-size="13" lengthAdjust="spacing" textLength="193" x="314.5" y="1052.4892">update record status : Uploaded</text><polygon fill="#181818" points="679.5,1086.0042,689.5,1090.0042,679.5,1094.0042,683.5,1090.0042" style="stroke:#181818;stroke-width:1.0;"/><line style="stroke:#181818;stroke-width:1.0;" x1="307.5" x2="685.5" y1="1090.0042" y2="1090.0042"/><text fill="#000000" font-family="sans-serif" font-size="13" lengthAdjust="spacing" textLength="69" x="314.5" y="1084.1952">update info</text><!--SRC=[dPH1Rn915CVl-obUwWMISkcnCIQYr92eDIN4YucPxZnmmZ93PcQht6pKg1VFdknNG2qfba2_mkmtyisoK1QAYvp8l7tlFsz-__UmmaO8pLwa61Uo3IpcGa6FQGi7K3exA0U1wGX90TQ5KnPssbh5aZzIaT9m7F6dBCIWnhHfe3uJ8KBb0Jpq6lFp8RJHplHHbsA3Mh8kxiCpj8mpoyf1BftAcvHpWZrbX5MwdmbGhDflPjKB6UekLts_Kbalzu4WMBjcfKjtaRntK_VB3UdtsWt0_NGZT-Kc53W7TqFH0NqTkN708WltNWZP0N3VatFA7YVVaizkICaZf5mtNQaUa_9l2boxOGwMxtUbZsfiZ4HZQkz2x5cXP82IR-Z-14EbULssLEx1eKPcSJK5NaambjdO7C9B9YovlGxlNxBDPltn7HoFH8GDIc5jNDpjOwM6rNwYubXmyYc5zaGZIeYpQO3a0z6x8KHV2DGKw30bPfS4UhBUMlwU5fr0S9HMj8Jt5oE3cIlk1mcEo05lO_8fTMxYdNEZvAiR_1VBkCVlOZa7cJLKqrhf8cUDwYBWxhOMjBBOOVAee9CrUAaxxeBmZycJR9BT49AFXEuFWHj0KB3bRxMmM6KsV5FoygzlvVVXj6_Hb0icPmk1vGAgt_Fd-LyB24aaP8XxUQsiT6bfwyUfNP2JyvGswr79mhU2mToOkfsxElsQcKhX8qRglD3Hx5OIcmrMEbm5ZhLkNykVAqBTdu7F5hPWpoDbPck-LBErFsdriYT2eVV4xBmLgzpc3zj9J52SyFq5]--></g></svg>