<?xml version="1.0" encoding="us-ascii" standalone="no"?><svg xmlns="http://www.w3.org/2000/svg" xmlns:xlink="http://www.w3.org/1999/xlink" contentStyleType="text/css" height="634px" preserveAspectRatio="none" style="width:830px;height:634px;background:#FFFFFF;" version="1.1" viewBox="0 0 830 634" width="830px" zoomAndPan="magnify"><defs/><g><text fill="#000000" font-family="sans-serif" font-size="14" font-weight="bold" lengthAdjust="spacing" textLength="160" x="334" y="29.9659">Uploading audio part 1</text><rect fill="#FFD700" height="96.118" style="stroke:#000000;stroke-width:1.5;" width="743.5" x="10" y="419.608"/><line style="stroke:#181818;stroke-width:0.5;stroke-dasharray:5.0,5.0;" x1="46" x2="46" y1="79.1358" y2="596.1381"/><line style="stroke:#181818;stroke-width:0.5;stroke-dasharray:5.0,5.0;" x1="236.5" x2="236.5" y1="79.1358" y2="596.1381"/><line style="stroke:#181818;stroke-width:0.5;stroke-dasharray:5.0,5.0;" x1="429" x2="429" y1="79.1358" y2="596.1381"/><line style="stroke:#181818;stroke-width:0.5;stroke-dasharray:5.0,5.0;" x1="605" x2="605" y1="79.1358" y2="596.1381"/><line style="stroke:#181818;stroke-width:0.5;stroke-dasharray:5.0,5.0;" x1="773" x2="773" y1="79.1358" y2="596.1381"/><rect fill="#E2E2F0" height="33.0679" rx="2.5" ry="2.5" style="stroke:#181818;stroke-width:0.5;" width="53" x="20" y="45.0679"/><text fill="#000000" font-family="sans-serif" font-size="14" lengthAdjust="spacing" textLength="39" x="27" y="67.0339">Client</text><rect fill="#E2E2F0" height="33.0679" rx="2.5" ry="2.5" style="stroke:#181818;stroke-width:0.5;" width="53" x="20" y="595.1381"/><text fill="#000000" font-family="sans-serif" font-size="14" lengthAdjust="spacing" textLength="39" x="27" y="617.104">Client</text><rect fill="#E2E2F0" height="33.0679" rx="2.5" ry="2.5" style="stroke:#181818;stroke-width:0.5;" width="122" x="175.5" y="45.0679"/><text fill="#000000" font-family="sans-serif" font-size="14" lengthAdjust="spacing" textLength="108" x="182.5" y="67.0339">AuthInterceptor</text><rect fill="#E2E2F0" height="33.0679" rx="2.5" ry="2.5" style="stroke:#181818;stroke-width:0.5;" width="122" x="175.5" y="595.1381"/><text fill="#000000" font-family="sans-serif" font-size="14" lengthAdjust="spacing" textLength="108" x="182.5" y="617.104">AuthInterceptor</text><rect fill="#E2E2F0" height="33.0679" rx="2.5" ry="2.5" style="stroke:#181818;stroke-width:0.5;" width="129" x="365" y="45.0679"/><text fill="#000000" font-family="sans-serif" font-size="14" lengthAdjust="spacing" textLength="115" x="372" y="67.0339">AuthzInterceptor</text><rect fill="#E2E2F0" height="33.0679" rx="2.5" ry="2.5" style="stroke:#181818;stroke-width:0.5;" width="129" x="365" y="595.1381"/><text fill="#000000" font-family="sans-serif" font-size="14" lengthAdjust="spacing" textLength="115" x="372" y="617.104">AuthzInterceptor</text><rect fill="#E2E2F0" height="33.0679" rx="2.5" ry="2.5" style="stroke:#181818;stroke-width:0.5;" width="91" x="560" y="45.0679"/><text fill="#000000" font-family="sans-serif" font-size="14" lengthAdjust="spacing" textLength="77" x="567" y="67.0339">EarsService</text><rect fill="#E2E2F0" height="33.0679" rx="2.5" ry="2.5" style="stroke:#181818;stroke-width:0.5;" width="91" x="560" y="595.1381"/><text fill="#000000" font-family="sans-serif" font-size="14" lengthAdjust="spacing" textLength="77" x="567" y="617.104">EarsService</text><rect fill="#E2E2F0" height="33.0679" rx="2.5" ry="2.5" style="stroke:#181818;stroke-width:0.5;" width="101" x="723" y="45.0679"/><text fill="#000000" font-family="sans-serif" font-size="14" lengthAdjust="spacing" textLength="87" x="730" y="67.0339">AudioService</text><rect fill="#E2E2F0" height="33.0679" rx="2.5" ry="2.5" style="stroke:#181818;stroke-width:0.5;" width="101" x="723" y="595.1381"/><text fill="#000000" font-family="sans-serif" font-size="14" lengthAdjust="spacing" textLength="87" x="730" y="617.104">AudioService</text><polygon fill="#181818" points="224.5,126.5479,234.5,130.5479,224.5,134.5479,228.5,130.5479" style="stroke:#181818;stroke-width:1.0;"/><line style="stroke:#181818;stroke-width:1.0;" x1="46.5" x2="230.5" y1="130.5479" y2="130.5479"/><text fill="#000000" font-family="sans-serif" font-size="13" lengthAdjust="spacing" textLength="160" x="53.5" y="107.0328">Open connnection request</text><text fill="#000000" font-family="sans-serif" font-size="13" lengthAdjust="spacing" textLength="163" x="56.5" y="124.7389">HEADERS: auth:&lt;user:pass&gt;</text><polygon fill="#181818" points="417.5,193.6659,427.5,197.6659,417.5,201.6659,421.5,197.6659" style="stroke:#181818;stroke-width:1.0;"/><line style="stroke:#181818;stroke-width:1.0;" x1="236.5" x2="423.5" y1="197.6659" y2="197.6659"/><text fill="#000000" font-family="sans-serif" font-size="13" lengthAdjust="spacing" textLength="160" x="243.5" y="156.4449">Open connnection request</text><text fill="#000000" font-family="sans-serif" font-size="13" lengthAdjust="spacing" textLength="163" x="246.5" y="174.1509">HEADERS: auth:&lt;user:pass&gt;</text><text fill="#000000" font-family="sans-serif" font-size="13" lengthAdjust="spacing" textLength="137" x="246.5" y="191.8569">SecurityContextHolder</text><polygon fill="#181818" points="593.5,225.3719,603.5,229.3719,593.5,233.3719,597.5,229.3719" style="stroke:#181818;stroke-width:1.0;"/><line style="stroke:#181818;stroke-width:1.0;" x1="429.5" x2="599.5" y1="229.3719" y2="229.3719"/><text fill="#000000" font-family="sans-serif" font-size="13" lengthAdjust="spacing" textLength="152" x="436.5" y="223.5629">Open connection request</text><line style="stroke:#181818;stroke-width:1.0;" x1="605.5" x2="647.5" y1="261.0779" y2="261.0779"/><line style="stroke:#181818;stroke-width:1.0;" x1="647.5" x2="647.5" y1="261.0779" y2="274.0779"/><line style="stroke:#181818;stroke-width:1.0;" x1="606.5" x2="647.5" y1="274.0779" y2="274.0779"/><polygon fill="#181818" points="616.5,270.0779,606.5,274.0779,616.5,278.0779,612.5,274.0779" style="stroke:#181818;stroke-width:1.0;"/><text fill="#000000" font-family="sans-serif" font-size="13" lengthAdjust="spacing" textLength="80" x="612.5" y="255.2689">get principals</text><polygon fill="#181818" points="593.5,337.196,603.5,341.196,593.5,345.196,597.5,341.196" style="stroke:#181818;stroke-width:1.0;"/><line style="stroke:#181818;stroke-width:1.0;" x1="46.5" x2="599.5" y1="341.196" y2="341.196"/><text fill="#000000" font-family="sans-serif" font-size="13" lengthAdjust="spacing" textLength="94" x="53.5" y="299.975">Send metadata.</text><text fill="#000000" font-family="sans-serif" font-size="13" lengthAdjust="spacing" textLength="123" x="56.5" y="317.681">TotalFileSize: X bytes</text><text fill="#000000" font-family="sans-serif" font-size="13" lengthAdjust="spacing" textLength="168" x="56.5" y="335.387">RecordStartTimestamp: Y ns</text><polygon fill="#181818" points="761.5,368.902,771.5,372.902,761.5,376.902,765.5,372.902" style="stroke:#181818;stroke-width:1.0;"/><line style="stroke:#181818;stroke-width:1.0;" x1="605.5" x2="767.5" y1="372.902" y2="372.902"/><text fill="#000000" font-family="sans-serif" font-size="13" lengthAdjust="spacing" textLength="144" x="612.5" y="367.093">getUploader(username)</text><polygon fill="#181818" points="616.5,400.608,606.5,404.608,616.5,408.608,612.5,404.608" style="stroke:#181818;stroke-width:1.0;"/><line style="stroke:#181818;stroke-width:1.0;stroke-dasharray:2.0,2.0;" x1="610.5" x2="772.5" y1="404.608" y2="404.608"/><text fill="#000000" font-family="sans-serif" font-size="13" lengthAdjust="spacing" textLength="107" x="622.5" y="398.799">uploader instance</text><path d="M10,419.608 L73,419.608 L73,429.314 L63,439.314 L10,439.314 L10,419.608 " fill="#EEEEEE" style="stroke:#000000;stroke-width:1.5;"/><rect fill="none" height="96.118" style="stroke:#000000;stroke-width:1.5;" width="743.5" x="10" y="419.608"/><text fill="#000000" font-family="sans-serif" font-size="13" font-weight="bold" lengthAdjust="spacing" textLength="18" x="25" y="434.505">alt</text><text fill="#000000" font-family="sans-serif" font-size="11" font-weight="bold" lengthAdjust="spacing" textLength="108" x="88" y="433.3669">[&#1042;&#1099;&#1075;&#1088;&#1091;&#1079;&#1082;&#1072; &#1076;&#1072;&#1085;&#1085;&#1099;&#1093;]</text><polygon fill="#181818" points="593.5,459.0201,603.5,463.0201,593.5,467.0201,597.5,463.0201" style="stroke:#181818;stroke-width:1.0;"/><line style="stroke:#181818;stroke-width:1.0;" x1="46.5" x2="599.5" y1="463.0201" y2="463.0201"/><text fill="#000000" font-family="sans-serif" font-size="13" lengthAdjust="spacing" textLength="66" x="53.5" y="457.2111">send batch</text><line style="stroke:#181818;stroke-width:1.0;" x1="605.5" x2="647.5" y1="494.7261" y2="494.7261"/><line style="stroke:#181818;stroke-width:1.0;" x1="647.5" x2="647.5" y1="494.7261" y2="507.7261"/><line style="stroke:#181818;stroke-width:1.0;" x1="606.5" x2="647.5" y1="507.7261" y2="507.7261"/><polygon fill="#181818" points="616.5,503.7261,606.5,507.7261,616.5,511.7261,612.5,507.7261" style="stroke:#181818;stroke-width:1.0;"/><text fill="#000000" font-family="sans-serif" font-size="13" lengthAdjust="spacing" textLength="129" x="612.5" y="488.9171">uploader.writeBatch()</text><polygon fill="#181818" points="593.5,542.4321,603.5,546.4321,593.5,550.4321,597.5,546.4321" style="stroke:#181818;stroke-width:1.0;"/><line style="stroke:#181818;stroke-width:1.0;" x1="46.5" x2="599.5" y1="546.4321" y2="546.4321"/><text fill="#000000" font-family="sans-serif" font-size="13" lengthAdjust="spacing" textLength="153" x="53.5" y="540.6231">Connection clone request</text><polygon fill="#181818" points="57.5,574.1381,47.5,578.1381,57.5,582.1381,53.5,578.1381" style="stroke:#181818;stroke-width:1.0;"/><line style="stroke:#181818;stroke-width:1.0;stroke-dasharray:2.0,2.0;" x1="51.5" x2="604.5" y1="578.1381" y2="578.1381"/><text fill="#000000" font-family="sans-serif" font-size="13" lengthAdjust="spacing" textLength="128" x="63.5" y="572.3291">Upload end response</text><!--SRC=[hP7DIWCn58NtUOeBRdJHWjkX56gjFokXew3W9cOkDf3UnEIEVoj1NBdpIGG5GV0TCczaGgjsAdNbEldEEVSSrcmGZfonij9q3hAkj0KdFSEc44EZaHWwVHZKFDadHg_GiVLGm8530cM921LhI-3neiR0S4gmDnfiZyPbaUHuKlJgWBvmCeI-MDQPIz_-WtP-B57LNlFDq2QzQzwpfa8lVZaarv7qeKH_gHKk6hRznEAlDbJ0EJ8uhqbf9qrOwAejNI9LC4MMbMJPpI4FBKkpemsM-ZRf7CFP3MF8BsDKrbSbf_eFzJG5a5DNm0bG4CjH1dce7vSKPZOY-lLS2SafRhIXNgUpJDLp13GbBr8eX926OMqt5GVngNcCByrTSn_VudjyXlWQd-D7_6WUcuULzuPyxvbaDH5_rlVbtRrAW-5M1jOtH8B5IkdXpq3AMCBlcUP0lh1Dp3g17CbZS9P2El4J]--></g></svg>